<svg width="40" height="40" viewBox="0 0 40 40" fill="none" xmlns="http://www.w3.org/2000/svg">
<path d="M40 20C40 31 31 40 20 40C9 40 0 31 0 20C0 9 9 0 20 0C31 0 40 9 40 20Z" fill="url(#paint0_linear_311_2216)"/>
<path d="M20.0773 35.9558L13.2593 32.2596L9.99988 26.8498L14.8986 9.08705L20.0773 12.0823L20.0773 35.9558Z" fill="url(#paint1_linear_311_2216)"/>
<path d="M20.0773 35.9558L20.0772 23.6881L14.0556 27.2348L13.2593 32.2596L20.0773 35.9558Z" fill="url(#paint2_linear_311_2216)" fill-opacity="0.7"/>
<path d="M20.0773 35.9558L26.8965 32.2588L30.1548 26.8498L25.256 9.08705L20.0773 12.0823L20.0773 35.9558Z" fill="url(#paint3_linear_311_2216)" fill-opacity="0.7"/>
<path d="M20.0773 35.9558L26.8965 32.2588L30.1548 26.8498L25.256 9.08705L20.0773 12.0823L20.0773 35.9558Z" fill="url(#paint4_linear_311_2216)" fill-opacity="0.5"/>
<path d="M14.8986 9.08705L20.0773 12.0823L20.0773 6.09188L14.8986 9.08705Z" fill="url(#paint5_linear_311_2216)"/>
<path d="M20.0772 26.5232L23.5064 28.5064L20.0772 30.4896L16.6481 28.5064L20.0772 26.5232Z" fill="url(#paint6_linear_311_2216)" fill-opacity="0.5"/>
<path d="M25.256 9.08705L20.0773 6.09188L20.0773 12.0823L25.256 9.08705Z" fill="url(#paint7_linear_311_2216)" fill-opacity="0.8"/>
<path d="M20.0772 7.35426L22.855 8.96075L20.0772 10.5672L17.2995 8.96075L20.0772 7.35426Z" fill="url(#paint8_linear_311_2216)" fill-opacity="0.6"/>
<path d="M20.0773 35.9558L20.0772 23.6881L26.0992 27.2348L26.8956 32.2595L20.0773 35.9558Z" fill="url(#paint9_linear_311_2216)"/>
<path d="M30.1548 26.8498L26.8956 32.2595L26.0992 27.2348L30.1548 26.8498Z" fill="url(#paint10_linear_311_2216)" fill-opacity="0.7"/>
<path d="M20.0772 21.8496L25.6582 25.0772L20.0772 28.3049L14.4963 25.0772L20.0772 21.8496Z" fill="url(#paint11_linear_311_2216)" fill-opacity="0.7"/>
<path d="M20.0772 21.8496L25.6582 25.0772L20.0772 28.3049L14.4963 25.0772L20.0772 21.8496Z" fill="url(#paint12_linear_311_2216)" fill-opacity="0.7"/>
<path d="M20.0772 28.3049L25.6582 25.0772L23.5064 28.5064L20.0772 30.4896V28.3049Z" fill="url(#paint13_linear_311_2216)" fill-opacity="0.9"/>
<path d="M20.0772 28.3049L14.4963 25.0772L17.2995 8.96075L20.0772 10.5672V28.3049Z" fill="url(#paint14_linear_311_2216)" fill-opacity="0.6"/>
<path d="M20.0772 28.3049L25.6582 25.0772L22.855 8.96075L20.0772 10.5672V28.3049Z" fill="url(#paint15_linear_311_2216)" fill-opacity="0.9"/>
<path d="M20.0772 28.3049L14.4963 25.0772L16.6481 28.5064L20.0772 30.4896V28.3049Z" fill="url(#paint16_linear_311_2216)" fill-opacity="0.9"/>
<path d="M9.99988 26.8498L13.2593 32.2596L14.0556 27.2348L9.99988 26.8498Z" fill="url(#paint17_linear_311_2216)" fill-opacity="0.7"/>
<defs>
<linearGradient id="paint0_linear_311_2216" x1="-3" y1="3" x2="43.5" y2="55.5" gradientUnits="userSpaceOnUse">
<stop stop-color="#70B4E6"/>
<stop offset="1" stop-color="#C417E0"/>
</linearGradient>
<linearGradient id="paint1_linear_311_2216" x1="-29.6717" y1="4.00245" x2="-30.5727" y2="26.4078" gradientUnits="userSpaceOnUse">
<stop stop-color="#3D79ED"/>
<stop offset="0.265625" stop-color="#3458C1" stop-opacity="0.7"/>
<stop offset="0.618879" stop-color="#3753B8" stop-opacity="0.7"/>
<stop offset="0.895833" stop-color="#5BB0FF" stop-opacity="0.9"/>
<stop offset="1" stop-color="#5BB0FF" stop-opacity="0.6"/>
</linearGradient>
<linearGradient id="paint2_linear_311_2216" x1="12.3837" y1="32.0147" x2="19.8195" y2="11.9893" gradientUnits="userSpaceOnUse">
<stop offset="0.046875" stop-color="white"/>
<stop offset="0.427083" stop-color="#DFF4FF"/>
<stop offset="0.994792" stop-color="#0E42C8"/>
</linearGradient>
<linearGradient id="paint3_linear_311_2216" x1="30.1547" y1="36.7786" x2="17.3513" y2="19.2009" gradientUnits="userSpaceOnUse">
<stop offset="0.280479" stop-color="white"/>
<stop offset="0.469567" stop-color="#FF79DA"/>
<stop offset="0.692708" stop-color="#3D3AE3" stop-opacity="0.9"/>
</linearGradient>
<linearGradient id="paint4_linear_311_2216" x1="30.1547" y1="35.3947" x2="19.0218" y2="16.1685" gradientUnits="userSpaceOnUse">
<stop offset="0.161458" stop-color="white"/>
<stop offset="1" stop-color="white" stop-opacity="0"/>
</linearGradient>
<linearGradient id="paint5_linear_311_2216" x1="15.6614" y1="6.40892" x2="24.4789" y2="30.9983" gradientUnits="userSpaceOnUse">
<stop stop-color="#1AD6FF"/>
<stop offset="1" stop-color="#496BE4" stop-opacity="0.6"/>
<stop offset="1" stop-color="#1F3CA3"/>
</linearGradient>
<linearGradient id="paint6_linear_311_2216" x1="29.1491" y1="17.325" x2="8.96521" y2="25.7258" gradientUnits="userSpaceOnUse">
<stop stop-color="#81FF6C"/>
<stop offset="1" stop-color="#31F3FF"/>
</linearGradient>
<linearGradient id="paint7_linear_311_2216" x1="29.3975" y1="4.96963" x2="12.2954" y2="14.5491" gradientUnits="userSpaceOnUse">
<stop stop-color="#FF79C9"/>
<stop offset="1" stop-color="#1F3CA3"/>
</linearGradient>
<linearGradient id="paint8_linear_311_2216" x1="29.572" y1="11.0002" x2="12.7858" y2="19.9953" gradientUnits="userSpaceOnUse">
<stop stop-color="#52FF6E"/>
<stop offset="1" stop-color="#31FFFF"/>
</linearGradient>
<linearGradient id="paint9_linear_311_2216" x1="26.2128" y1="31.2171" x2="20.9762" y2="8.64884" gradientUnits="userSpaceOnUse">
<stop offset="0.103809" stop-color="white"/>
<stop offset="0.436548" stop-color="#FFAACE" stop-opacity="0.8"/>
<stop offset="0.71875" stop-color="#6F97FF" stop-opacity="0.8"/>
</linearGradient>
<linearGradient id="paint10_linear_311_2216" x1="20.0774" y1="28.2505" x2="8.20697" y2="7.09803" gradientUnits="userSpaceOnUse">
<stop stop-color="white"/>
<stop offset="0.591466" stop-color="#FF94D4"/>
<stop offset="1" stop-color="#C994FF"/>
</linearGradient>
<linearGradient id="paint11_linear_311_2216" x1="29.1491" y1="17.325" x2="8.96521" y2="25.7258" gradientUnits="userSpaceOnUse">
<stop stop-color="#81FF6C"/>
<stop offset="1" stop-color="#31F3FF"/>
</linearGradient>
<linearGradient id="paint12_linear_311_2216" x1="25.487" y1="29.0395" x2="9.67931" y2="18.371" gradientUnits="userSpaceOnUse">
<stop stop-color="white"/>
<stop offset="1" stop-color="white" stop-opacity="0"/>
</linearGradient>
<linearGradient id="paint13_linear_311_2216" x1="31.1379" y1="6.09188" x2="3.38571" y2="22.4926" gradientUnits="userSpaceOnUse">
<stop offset="0.149863" stop-color="white"/>
<stop offset="0.300261" stop-color="#8CFF31"/>
<stop offset="0.449118" stop-color="#45C3EB"/>
<stop offset="1" stop-color="#72E6FF"/>
</linearGradient>
<linearGradient id="paint14_linear_311_2216" x1="18.9988" y1="35.9558" x2="31.9271" y2="14.7631" gradientUnits="userSpaceOnUse">
<stop stop-color="#6CFFED"/>
<stop offset="1" stop-color="#197F9F"/>
</linearGradient>
<linearGradient id="paint15_linear_311_2216" x1="80.4369" y1="24.7593" x2="70.4358" y2="0.26216" gradientUnits="userSpaceOnUse">
<stop offset="0.464598" stop-color="white"/>
<stop offset="0.790313" stop-color="#6DF390"/>
<stop offset="1" stop-color="#21CAFF" stop-opacity="0.9"/>
</linearGradient>
<linearGradient id="paint16_linear_311_2216" x1="30.1548" y1="6.09188" x2="3.23729" y2="22.7706" gradientUnits="userSpaceOnUse">
<stop offset="0.125" stop-color="white"/>
<stop offset="0.297772" stop-color="#8CFF31"/>
<stop offset="0.447917" stop-color="#5BF5FF"/>
</linearGradient>
<linearGradient id="paint17_linear_311_2216" x1="13.4714" y1="32.6986" x2="12.685" y2="26.8497" gradientUnits="userSpaceOnUse">
<stop stop-color="#DFF4FF"/>
<stop offset="0.994792" stop-color="#0E42C8"/>
</linearGradient>
</defs>
</svg>
